# xmcd
#
# Track frame offsets:
#	150
#	12936
#	25156
#	40687
#	53136
#	66158
#	77145
#	93449
#	104330
#	119434
#	133654
#	146399
#	163905
#	181670
#
# Disc length: 2586 seconds
# Revision: 0
# Processed by: cddbd v1.5.2PL0 Copyright (c) Steve Scherf et al.
# Submitted via: dBpowerAMP V12.0
#
DISCID=b50a180e
DTITLE=Génération VIP - Merci Renée!
DYEAR=2013
DGENRE=Country
TTITLE0=Liverpool
TTITLE1=Je vais à Londres
TTITLE2=Cowgirl dorée
TTITLE3=Nous on aime la musique country
TTITLE4=J'ai un amour qui ne veut pas mourir
TTITLE5=De villes en villages
TTITLE6=Nous
TTITLE7=Un coin du ciel
TTITLE8=Si on pouvait recommencer
TTITLE9=Darling
TTITLE10=Prends ma main
TTITLE11=C'est mon histoire
TTITLE12=Tu n'est plus là
TTITLE13=Ces bottes sont faites pour marcher
EXTD=
EXTT0=
EXTT1=
EXTT2=
EXTT3=
EXTT4=
EXTT5=
EXTT6=
EXTT7=
EXTT8=
EXTT9=
EXTT10=
EXTT11=
EXTT12=
EXTT13=
PLAYORDER=
